<svg width="26" height="16" viewBox="0 0 26 16" fill="none" xmlns="http://www.w3.org/2000/svg">
<g clip-path="url(#clip0_1_2)">
<path d="M0.373782 9.34406C0.303907 9.34726 0.235332 9.32453 0.182032 9.28005C0.136532 9.22661 0.115407 9.15717 0.123532 9.08805V2.56006C0.115407 2.49094 0.136532 2.4215 0.182032 2.36806C0.235982 2.32774 0.302932 2.30854 0.370532 2.31366H1.09203C1.22853 2.30022 1.35138 2.39462 1.37153 2.52806L1.44303 2.78406C1.65071 2.58662 1.89608 2.4311 2.16453 2.32646C2.43916 2.21702 2.73263 2.16038 3.02903 2.16006C3.61988 2.14086 4.18473 2.39974 4.55003 2.85766C4.95238 3.40358 5.15226 4.06886 5.11553 4.74246C5.12658 5.23142 5.03136 5.71686 4.83603 6.16646C4.67483 6.54086 4.41288 6.86502 4.07878 7.10406C3.75573 7.32102 3.37126 7.43301 2.98028 7.42406C2.71476 7.42533 2.45086 7.38213 2.20028 7.29605C1.96986 7.21989 1.75698 7.10022 1.57303 6.94406V9.09445C1.58018 9.16293 1.56068 9.23173 1.51778 9.28646C1.46221 9.32869 1.39233 9.3479 1.32278 9.34086L0.373782 9.34406ZM2.56103 6.34886C2.88213 6.37158 3.19283 6.23013 3.38328 5.97446C3.58576 5.6167 3.67741 5.20838 3.64653 4.80006C3.67773 4.3879 3.58738 3.97574 3.38653 3.61286C3.19543 3.35462 2.88148 3.21286 2.55778 3.23846C2.21426 3.23878 1.87756 3.33029 1.58278 3.50406V6.08006C1.87528 6.25925 2.21328 6.35334 2.55778 6.35206L2.56103 6.34886Z" fill="#00A8E1"/>
<path d="M6.35046 7.32158C6.23411 7.34302 6.12199 7.2675 6.10021 7.15262C6.09534 7.12702 6.09534 7.10078 6.10021 7.07518V2.55999C6.09209 2.49087 6.11321 2.42143 6.15871 2.36799C6.21266 2.32767 6.27961 2.30847 6.34721 2.31359H7.06546C7.20196 2.30015 7.32481 2.39455 7.34496 2.52799L7.47496 3.05279C7.68849 2.80671 7.94361 2.59871 8.22896 2.43839C8.46166 2.31839 8.72036 2.25599 8.98296 2.25599H9.12271C9.19324 2.24991 9.26376 2.26911 9.32096 2.31039C9.36646 2.36383 9.38759 2.43327 9.37946 2.50239V3.32798C9.38499 3.39454 9.36549 3.46046 9.32421 3.51358C9.26994 3.55838 9.19941 3.57918 9.12921 3.57118H8.95046C8.87669 3.57118 8.78374 3.57118 8.67096 3.57118C8.48311 3.57502 8.29591 3.59646 8.11196 3.63518C7.92021 3.67006 7.73301 3.72478 7.55296 3.79838V7.07838C7.55816 7.14494 7.53866 7.21086 7.49771 7.26398C7.44344 7.30878 7.37291 7.32958 7.30271 7.32158H6.35046Z" fill="#00A8E1"/>
<path d="M10.8192 1.53274C10.5976 1.54362 10.3801 1.47034 10.2115 1.32794C10.0548 1.18362 9.97063 0.978823 9.9807 0.767943C9.96965 0.555783 10.0538 0.349703 10.2115 0.204743C10.5677 -0.0758973 11.074 -0.0758973 11.4302 0.204743C11.5869 0.349063 11.671 0.553863 11.661 0.764743C11.671 0.975623 11.5869 1.18042 11.4302 1.32474C11.2612 1.46906 11.0425 1.54362 10.8192 1.53274ZM10.3415 7.32474C10.2251 7.34618 10.113 7.27066 10.0912 7.15578C10.0863 7.13018 10.0863 7.10394 10.0912 7.07834V2.55994C10.0831 2.49082 10.1042 2.42138 10.1497 2.36794C10.2037 2.32762 10.2706 2.30842 10.3382 2.31354H11.297C11.3665 2.3065 11.4364 2.3257 11.492 2.36794C11.5349 2.42266 11.5544 2.49146 11.5472 2.55994V7.07834C11.5527 7.1449 11.5332 7.21082 11.492 7.26394C11.4377 7.30874 11.3672 7.32954 11.297 7.32154L10.3415 7.32474Z" fill="#00A8E1"/>
<path d="M13.0325 7.32159C12.9161 7.34303 12.804 7.26751 12.7822 7.15263C12.7773 7.12703 12.7773 7.10079 12.7822 7.07519V2.55999C12.7741 2.49087 12.7952 2.42143 12.8407 2.36799C12.8947 2.32767 12.9616 2.30847 13.0292 2.31359H13.7475C13.884 2.30015 14.0068 2.39455 14.027 2.52799L14.1082 2.79359C14.404 2.59295 14.7238 2.42975 15.0605 2.30719C15.3383 2.21183 15.6305 2.16223 15.925 2.15999C16.4372 2.11679 16.9292 2.36543 17.1925 2.79999C17.4892 2.59903 17.8116 2.43775 18.1512 2.31999C18.4509 2.22175 18.7648 2.17215 19.0807 2.17279C19.4798 2.14911 19.8711 2.28799 20.163 2.55679C20.4321 2.84735 20.5705 3.23295 20.5465 3.62559V7.07839C20.5517 7.14495 20.5322 7.21087 20.4912 7.26399C20.4369 7.30879 20.3664 7.32959 20.2962 7.32159H19.3505C19.2341 7.34303 19.122 7.26751 19.1002 7.15263C19.0953 7.12703 19.0953 7.10079 19.1002 7.07519V3.92639C19.1002 3.48063 18.8977 3.25759 18.4925 3.25759C18.1148 3.26175 17.7427 3.34943 17.4037 3.51359V7.07839C17.4092 7.14495 17.3897 7.21087 17.3485 7.26399C17.2942 7.30879 17.2237 7.32959 17.1535 7.32159H16.198C16.0816 7.34303 15.9695 7.26751 15.9477 7.15263C15.9428 7.12703 15.9428 7.10079 15.9477 7.07519V3.92639C15.9477 3.48063 15.7452 3.25759 15.34 3.25759C14.9578 3.25983 14.5814 3.35103 14.2415 3.52319V7.07519C14.2467 7.14175 14.2272 7.20767 14.1862 7.26079C14.1319 7.30559 14.0614 7.32639 13.9912 7.31839L13.0325 7.32159Z" fill="#00A8E1"/>
<path d="M24.024 7.46881C23.3237 7.51393 22.6356 7.27201 22.1228 6.80001C21.6538 6.27137 21.4195 5.57985 21.4728 4.88001C21.426 4.15457 21.6632 3.43873 22.1358 2.88001C22.6282 2.37953 23.3175 2.11425 24.024 2.15361C24.5466 2.12289 25.0627 2.28001 25.4768 2.59521C25.8271 2.88961 26.0202 3.32641 26 3.77921C26.0238 4.22241 25.8089 4.64545 25.4345 4.89281C24.9305 5.17633 24.3529 5.30753 23.7738 5.27041C23.4455 5.27425 23.1179 5.23777 22.7988 5.16161C22.8007 5.51553 22.9457 5.85409 23.2018 6.10241C23.505 6.31425 23.8742 6.41505 24.245 6.38721C24.4264 6.38721 24.6077 6.37537 24.7878 6.35201C25.0354 6.31425 25.2805 6.26273 25.5223 6.19841H25.5808H25.6295C25.7423 6.19841 25.7985 6.27425 25.7985 6.42561V6.87681C25.8047 6.95329 25.7891 7.02977 25.753 7.09761C25.7069 7.15105 25.6458 7.18977 25.5775 7.20961C25.0803 7.38977 24.5538 7.47777 24.024 7.46881ZM23.699 4.38721C23.9548 4.40545 24.2106 4.35233 24.4368 4.23361C24.5921 4.12897 24.6799 3.95137 24.6675 3.76641C24.6675 3.35457 24.4183 3.14881 23.92 3.14881C23.2808 3.14881 22.9116 3.53505 22.8118 4.30721C23.102 4.36193 23.3971 4.38881 23.6925 4.38721H23.699Z" fill="#00A8E1"/>
<path d="M23.5007 12.8352C20.6537 14.9024 16.5262 16 12.9739 16C8.227 16.025 3.64125 14.3056 0.1137 11.1776C-0.1528 10.9408 0.0844502 10.6176 0.4062 10.8C4.32505 13.0032 8.76033 14.1603 13.273 14.1568C16.6403 14.1392 19.9712 13.4682 23.075 12.1824C23.569 11.9808 23.972 12.48 23.5007 12.8352Z" fill="#00A8E1"/>
<path d="M24.7 11.52C24.336 11.0624 22.295 11.3024 21.3752 11.4112C21.0957 11.4432 21.0502 11.2064 21.3037 11.0336C22.9287 9.90719 25.6035 10.2336 25.9122 10.6112C26.221 10.9888 25.831 13.6224 24.2872 14.88C24.0532 15.072 23.829 14.9696 23.933 14.7136C24.2807 13.8528 25.051 11.9648 24.7 11.52Z" fill="#00A8E1"/>
</g>
<defs>
<clipPath id="clip0_1_2">
<rect width="26" height="16" fill="white"/>
</clipPath>
</defs>
</svg>
