<svg width="28" height="14" viewBox="0 0 28 14" fill="none" xmlns="http://www.w3.org/2000/svg">
<g clip-path="url(#clip0_1_10)">
<path d="M7.83184 2.24461C8.3195 1.63951 8.65174 0.829985 8.56293 0C7.8504 0.0347799 6.97887 0.4659 6.47288 1.07122C6.02034 1.58869 5.61996 2.43473 5.72317 3.22792C6.52656 3.29746 7.32585 2.83156 7.83184 2.24461Z" fill="#0D0D0D"/>
<path d="M8.55449 3.38325C7.38966 3.31371 6.4004 4.03742 5.84488 4.03742C5.28755 4.03742 4.43634 3.41801 3.51522 3.43436C2.31737 3.45175 1.20628 4.1233 0.597021 5.1904C-0.654572 7.32253 0.266252 10.4891 1.48301 12.2268C2.07365 13.0874 2.78618 14.0339 3.72381 13.9991C4.6098 13.9643 4.95883 13.4329 6.03486 13.4329C7.11293 13.4329 7.42479 13.9991 8.36241 13.9829C9.33721 13.9655 9.94442 13.1222 10.5351 12.2616C11.2125 11.2824 11.4913 10.3359 11.5078 10.2827C11.4903 10.2653 9.63257 9.55909 9.61395 7.44329C9.59639 5.67091 11.0741 4.82864 11.1443 4.77753C10.31 3.55506 9.0068 3.41802 8.55449 3.38325Z" fill="#0D0D0D"/>
<path d="M15.9686 1.75208V4.08865H17.8665V5.63208H15.9686V11.1291C15.9686 11.9796 16.3467 12.3741 17.1767 12.3741C17.3851 12.3741 17.7258 12.3451 17.8583 12.3277V13.8793C17.6311 13.9257 17.1767 13.9634 16.7327 13.9634C14.7687 13.9634 14.0045 13.2151 14.0045 11.3263V5.63297H12.5485V4.08954H14.0045V1.75297L15.9686 1.75208Z" fill="#0D0D0D"/>
<path d="M24.5124 13.8862H22.4265L18.9218 4.09009H20.9953L23.455 11.9626H23.5019L25.9616 4.09009H28L24.5124 13.8862Z" fill="#0D0D0D"/>
</g>
<defs>
<clipPath id="clip0_1_10">
<rect width="28" height="14" fill="white"/>
</clipPath>
</defs>
</svg>
