<svg width="18" height="20" viewBox="0 0 18 20" fill="none" xmlns="http://www.w3.org/2000/svg">
<g clip-path="url(#clip0_1_47)">
<path d="M4.70906 10.6681C3.49213 10.8484 2.59266 10.6681 2.2752 10.1167L0.22229 11.2832C0.814883 12.0361 2.508 12.0467 4.71964 11.4317L4.70906 10.6681Z" fill="url(#paint0_linear_1_47)"/>
<path d="M16.127 6.44751L14.836 5.73701L14.127 5.34464L12.4551 4.42206L10.2011 3.17073C12.4127 2.386 14.2117 2.29056 14.7619 3.04348L16.836 1.86638C16.1482 0.646872 13.0053 1.04984 9.32278 2.68293L4.46564 0L4.5503 3.95546C6.6667 3.39343 7.91538 3.35101 7.91538 3.35101C7.61908 3.51007 7.3122 3.66914 7.00532 3.83881C6.14818 4.31601 5.34395 4.81442 4.60321 5.32344C4.59262 5.32344 4.59262 5.33404 4.58204 5.33404C1.37569 7.57158 -0.529069 9.95758 0.127015 11.1559C0.148179 11.1983 0.179925 11.2407 0.222253 11.2831L2.27516 10.1166C2.27516 10.1166 2.27516 10.106 2.26458 10.106C1.79897 9.26829 2.7831 7.78367 4.60321 6.29905L4.64553 8.3245L4.70903 11.4104L4.74077 13.0435L4.7831 14.772L17.8413 7.3701L16.127 6.44751Z" fill="url(#paint1_linear_1_47)"/>
<path d="M16.8359 1.86641L14.7619 3.0435C14.783 3.07532 14.8042 3.10713 14.8254 3.13894C15.1217 3.66916 14.8359 4.45389 14.127 5.34467L14.8359 5.73703C16.4973 4.16757 17.3121 2.71476 16.8359 1.86641Z" fill="url(#paint2_linear_1_47)"/>
<path fill-rule="evenodd" clip-rule="evenodd" d="M3.70373 18.0912C3.70373 18.2079 3.7778 18.6003 4.24341 18.6003C4.70902 18.6003 4.7831 18.2079 4.7831 18.0912V17.2959C4.7831 17.1793 4.70902 16.7869 4.24341 16.7869C3.7778 16.7869 3.70373 17.1793 3.70373 17.2959V18.0912ZM3.15347 17.3171C3.15347 17.2641 3.16405 17.0202 3.29103 16.7869C3.41802 16.5642 3.68257 16.3097 4.23283 16.3097H4.24341C4.79368 16.3097 5.05823 16.5642 5.18521 16.7869C5.32278 17.0202 5.32278 17.2641 5.32278 17.3171V18.07C5.32278 18.1231 5.3122 18.367 5.18521 18.6003C5.05823 18.8229 4.79368 19.0775 4.24341 19.0775H4.23283C3.68257 19.0775 3.41802 18.8229 3.29103 18.6003C3.15347 18.367 3.15347 18.1231 3.15347 18.07V17.3171ZM2.94183 18.5366C2.94183 18.526 2.93124 18.5048 2.92066 18.5048L2.50796 18.3033C2.49738 18.3033 2.49738 18.3033 2.4868 18.3033C2.47622 18.3033 2.45505 18.3139 2.45505 18.3245C2.39156 18.4624 2.254 18.6109 1.96828 18.6109C1.50267 18.6109 1.4286 18.2185 1.4286 18.1018V17.3065C1.4286 17.1899 1.50267 16.7975 1.96828 16.7975C2.254 16.7975 2.39156 16.946 2.45505 17.0944C2.46564 17.105 2.47622 17.1156 2.4868 17.1156C2.49738 17.1156 2.49738 17.1156 2.50796 17.1156L2.92066 16.9035C2.93124 16.8929 2.94183 16.8823 2.94183 16.8717C2.94183 16.8611 2.94183 16.8611 2.94183 16.8611C2.93124 16.8399 2.93124 16.8293 2.92066 16.8187C2.79368 16.596 2.52913 16.3415 1.97886 16.3415H1.96828C1.41802 16.3415 1.15347 16.596 1.02648 16.8187C0.888916 17.052 0.888916 17.2959 0.888916 17.3489V18.1018C0.888916 18.1549 0.899498 18.3988 1.02648 18.6321C1.15347 18.8548 1.41802 19.1093 1.96828 19.1093H1.97886C2.52913 19.1093 2.79368 18.8548 2.92066 18.6321C2.93124 18.6109 2.94183 18.6003 2.94183 18.579C2.93124 18.5472 2.94183 18.5366 2.94183 18.5366ZM7.80955 18.982V16.4051C7.80955 16.3839 7.78839 16.3627 7.76722 16.3627H7.30161C7.28045 16.3627 7.25929 16.3839 7.25929 16.4051V17.3171V18.0912C7.25929 18.2079 7.18521 18.6003 6.7196 18.6003C6.25399 18.6003 6.17992 18.2079 6.17992 18.0912V16.4051C6.17992 16.3839 6.15876 16.3627 6.13759 16.3627H5.67198C5.65082 16.3627 5.62966 16.3839 5.62966 16.3945V18.0594C5.62966 18.1124 5.62966 18.3564 5.75664 18.5896C5.87304 18.8123 6.10585 19.0669 6.6032 19.0669H6.61378C6.94183 19.0669 7.15347 18.929 7.29103 18.7911V18.9714C7.29103 18.9926 7.3122 19.0032 7.33336 19.0032H7.76722C7.78839 19.0244 7.80955 19.0032 7.80955 18.982Z" fill="#945226"/>
<path fill-rule="evenodd" clip-rule="evenodd" d="M12.1905 18.1443C12.1905 18.2503 12.1164 18.6215 11.6719 18.6215C11.2169 18.6215 11.1534 18.2503 11.1534 18.1443V18.1018C11.1534 17.9958 11.2275 17.6246 11.6719 17.6246C12.127 17.6246 12.1905 17.9958 12.1905 18.1018V18.1443ZM12.6878 17.3065C12.6878 17.0944 12.582 16.596 12.1058 16.4051C11.619 16.2036 10.9629 16.4476 10.8042 16.5112C10.7831 16.5112 10.7725 16.5324 10.7725 16.543C10.7725 16.5536 10.7725 16.5536 10.7725 16.5642L10.8995 16.9354C10.91 16.9566 10.9312 16.9672 10.9418 16.9566C11.1217 16.8611 11.6084 16.7021 11.9047 16.8399C12.1905 16.9672 12.1693 17.2747 12.1693 17.3065V17.3807C11.9894 17.2535 11.7778 17.1793 11.5555 17.1793H11.545C11.0476 17.1793 10.8148 17.4126 10.6984 17.6246C10.582 17.8473 10.5714 18.0806 10.5714 18.1231C10.5714 18.1655 10.582 18.3988 10.6984 18.6215C10.8148 18.8336 11.0476 19.0669 11.545 19.0669C11.8307 19.0669 12.0317 18.9608 12.1693 18.8548V18.982C12.1693 19.0032 12.1905 19.0138 12.2116 19.0138H12.6243C12.6455 19.0138 12.6561 18.9926 12.6666 18.982V17.5822V17.3065C12.6878 17.3171 12.6878 17.3065 12.6878 17.3065Z" fill="#FFC500"/>
<path fill-rule="evenodd" clip-rule="evenodd" d="M15.2064 17.3277C15.2064 17.2747 15.2064 17.0308 15.0794 16.7975C14.963 16.5748 14.7302 16.3203 14.2328 16.3203C13.9048 16.3203 13.6931 16.4476 13.5556 16.5854V16.4051C13.5556 16.3839 13.5344 16.3733 13.5238 16.3627H13.09C13.0688 16.3627 13.0582 16.3839 13.0582 16.4051V18.982C13.0582 19.0032 13.0794 19.0138 13.1006 19.0138H13.5662C13.5873 19.0138 13.5979 19.0032 13.6085 18.982V17.2641C13.6191 17.1263 13.7143 16.7869 14.1482 16.7869C14.6138 16.7869 14.6879 17.1793 14.6879 17.2959V18.982C14.6879 19.0032 14.709 19.0244 14.7302 19.0244H15.1958C15.217 19.0244 15.2275 19.0032 15.2275 18.982L15.2064 17.3277Z" fill="#87CC2E"/>
<path fill-rule="evenodd" clip-rule="evenodd" d="M9.77786 18.0913C9.77786 18.2079 9.70379 18.6003 9.23818 18.6003C8.77257 18.6003 8.6985 18.2079 8.6985 18.0913V17.2959C8.6985 17.1793 8.77257 16.7869 9.23818 16.7869C9.70379 16.7869 9.77786 17.1793 9.77786 17.2959V18.0913ZM10.2011 16.7975C10.0847 16.5748 9.85194 16.3203 9.35458 16.3203H9.344C9.01596 16.3203 8.80432 16.4582 8.66675 16.596V16.4158C8.66675 16.3945 8.64559 16.3733 8.62442 16.3733H8.20114C8.17998 16.3733 8.15881 16.3945 8.15881 16.4158V19.9258C8.15881 19.947 8.17998 19.9576 8.20114 19.9576H8.67733C8.6985 19.9576 8.70908 19.9364 8.70908 19.9258V18.8548C8.84664 18.982 9.05828 19.0881 9.35458 19.0987H9.36516C9.85194 19.0987 10.0953 18.8442 10.2117 18.6215C10.3281 18.3882 10.3387 18.1443 10.3387 18.0913V17.3383C10.3281 17.2747 10.3175 17.0308 10.2011 16.7975Z" fill="#F7552F"/>
<path fill-rule="evenodd" clip-rule="evenodd" d="M17.1535 17.3064C17.1535 17.4125 17.0794 17.7836 16.6138 17.7836C16.1482 17.7836 16.0741 17.4019 16.0741 17.3064V17.2746C16.0741 17.1686 16.1482 16.7974 16.6138 16.7974C17.0794 16.7974 17.1535 17.1792 17.1535 17.2746V17.3064ZM17.9577 16.3414C17.6826 16.3308 17.5027 16.4475 17.3863 16.5747C17.2275 16.4369 16.9842 16.3308 16.6244 16.3308H16.6138C16.0635 16.3308 15.799 16.5747 15.672 16.7868C15.5344 17.0095 15.5344 17.2428 15.5344 17.2852V17.3064C15.5344 17.3488 15.545 17.5927 15.672 17.8048C15.7249 17.9003 15.8096 17.9957 15.9365 18.0805C15.7355 18.1972 15.545 18.4093 15.545 18.7804V18.9819C15.545 19.0031 15.5662 19.0137 15.5768 19.0243H17.217C17.3651 19.0243 17.4815 19.141 17.4815 19.2895C17.4815 19.4485 17.3757 19.5228 17.2064 19.5864C17.1852 19.597 17.1641 19.6182 17.1852 19.65C17.1958 19.6712 17.3334 19.9469 17.3439 19.9681C17.3545 19.9893 17.3757 20 17.4074 19.9893C17.7355 19.8939 17.9471 19.6288 17.9471 19.2895C17.9471 18.8971 17.6297 18.579 17.2381 18.579H16.0847C16.1482 18.2502 16.5291 18.2608 16.5715 18.2608C16.5926 18.2608 16.6032 18.2608 16.6244 18.2608H16.635C17.1852 18.2608 17.4498 18.0169 17.5768 17.8048C17.7143 17.5821 17.7143 17.3488 17.7143 17.3064V17.2852C17.7143 17.2428 17.7143 17.0731 17.6297 16.8822C17.7037 16.8292 17.8096 16.7868 17.9789 16.7974C18 16.7974 18.0106 16.7762 18.0212 16.7656V16.3838C18 16.352 17.9789 16.3414 17.9577 16.3414Z" fill="#30B5DC"/>
</g>
<defs>
<linearGradient id="paint0_linear_1_47" x1="2.03647" y1="10.2307" x2="3.22699" y2="12.2883" gradientUnits="userSpaceOnUse">
<stop stop-color="#27C0FF"/>
<stop offset="1" stop-color="#0890FF"/>
</linearGradient>
<linearGradient id="paint1_linear_1_47" x1="4.66384" y1="-0.114666" x2="11.2255" y2="11.2265" gradientUnits="userSpaceOnUse">
<stop stop-color="#53D2FF"/>
<stop offset="1" stop-color="#02AFFF"/>
</linearGradient>
<linearGradient id="paint2_linear_1_47" x1="15.0614" y1="2.87407" x2="16.244" y2="4.91802" gradientUnits="userSpaceOnUse">
<stop stop-color="#23BDFF"/>
<stop offset="1" stop-color="#0890FF"/>
</linearGradient>
<clipPath id="clip0_1_47">
<rect width="18" height="20" fill="white"/>
</clipPath>
</defs>
</svg>
