<svg width="33" height="18" viewBox="0 0 33 18" fill="none" xmlns="http://www.w3.org/2000/svg">
<g clip-path="url(#clip0_1_58)">
<path d="M23.3251 11.6506C22.8686 11.7558 21.6672 11.8163 21.6672 11.8163L21.515 12.2942C21.515 12.2942 22.1142 12.2432 22.5516 12.2878C22.5516 12.2878 22.6943 12.2719 22.7101 12.4503C22.7165 12.6159 22.6974 12.7943 22.6974 12.7943C22.6974 12.7943 22.6879 12.9027 22.5358 12.9281C22.3709 12.9568 21.2424 12.9982 21.2424 12.9982L21.0585 13.6195C21.0585 13.6195 20.992 13.7628 21.1441 13.7214C21.2868 13.6832 22.4692 13.4602 22.6245 13.492C22.7894 13.5335 22.9732 13.7533 22.9193 13.9572C22.8559 14.2057 21.6767 14.9639 20.9571 14.9097C20.9571 14.9097 20.5799 14.9352 20.2597 14.4223C19.9617 13.9349 20.3738 13.0078 20.3738 13.0078C20.3738 13.0078 20.1868 12.5745 20.3231 12.4312C20.3231 12.4312 20.4055 12.3579 20.6401 12.3388L20.9286 11.7366C20.9286 11.7366 20.5989 11.7589 20.4023 11.5168C20.2185 11.2843 20.2058 11.1791 20.3453 11.1154C20.4943 11.0421 21.8669 10.7904 22.8116 10.8223C22.8116 10.8223 23.1412 10.7904 23.4234 11.3639C23.4202 11.3639 23.5597 11.5965 23.3251 11.6506ZM19.7715 13.9635C19.651 14.2503 19.3309 14.5561 18.9346 14.365C18.5415 14.1738 17.917 12.8899 17.917 12.8899C17.917 12.8899 17.6793 12.412 17.6349 12.4216C17.6349 12.4216 17.5842 12.3292 17.5525 12.8517C17.5208 13.3742 17.5588 14.3904 17.3528 14.5497C17.1562 14.709 16.9185 14.6453 16.7948 14.4573C16.6839 14.2726 16.6363 13.8329 16.6966 13.062C16.7695 12.291 16.947 11.469 17.1752 11.211C17.4035 10.9561 17.5874 11.1409 17.6571 11.2078C17.6571 11.2078 17.9614 11.485 18.4654 12.3005L18.5542 12.4503C18.5542 12.4503 19.0107 13.2212 19.0582 13.2181C19.0582 13.2181 19.0963 13.2531 19.128 13.2276C19.1755 13.2149 19.1565 12.9664 19.1565 12.9664C19.1565 12.9664 19.0614 12.1285 18.6461 10.7076C18.6461 10.7076 18.5827 10.5292 18.6271 10.3635C18.6683 10.1947 18.8363 10.2743 18.8363 10.2743C18.8363 10.2743 19.483 10.5993 19.7937 11.657C20.1012 12.7243 19.892 13.6768 19.7715 13.9635ZM16.5951 11.246C16.5412 11.3543 16.5095 11.5104 16.2369 11.5519C16.2369 11.5519 13.628 11.7303 13.5044 11.915C13.5044 11.915 13.4124 12.0234 13.5551 12.0552C13.6977 12.0839 14.2874 12.1635 14.5727 12.1795C14.877 12.1827 15.9041 12.1922 16.2718 12.6542C16.2718 12.6542 16.4905 12.874 16.481 13.371C16.4715 13.8807 16.3827 14.0591 16.1862 14.2439C15.9801 14.4159 14.2113 15.2124 13.0701 13.989C13.0701 13.989 12.5438 13.3997 13.2508 12.9536C13.2508 12.9536 13.7611 12.6446 15.0577 13.0078C15.0577 13.0078 15.4508 13.1512 15.4317 13.2945C15.4095 13.4474 15.1084 13.6099 14.6709 13.6004C14.2461 13.5876 13.9355 13.3837 13.9957 13.4156C14.0528 13.4379 13.5392 13.1671 13.3807 13.3519C13.2222 13.5207 13.2603 13.6258 13.4156 13.731C13.8118 13.9572 15.343 13.8775 15.7995 13.3678C15.7995 13.3678 15.9801 13.1607 15.7044 12.9919C15.4286 12.8326 14.6392 12.737 14.3317 12.7211C14.0369 12.7051 12.9401 12.7243 12.7816 12.4312C12.7816 12.4312 12.6231 12.2336 12.7974 11.6729C12.9813 11.0867 14.2588 10.8605 14.8104 10.8096C14.8104 10.8096 16.3288 10.7554 16.6078 11.0676C16.6046 11.0676 16.6427 11.1409 16.5951 11.246ZM12.2839 14.6835C12.1 14.8205 11.7101 14.76 11.5992 14.6071C11.4882 14.4701 11.4502 13.9253 11.4724 13.0715C11.4946 12.2081 11.5136 11.1377 11.6974 10.9689C11.894 10.7968 12.0144 10.9466 12.0905 11.0644C12.1729 11.1791 12.2712 11.3066 12.2934 11.5773C12.3124 11.8481 12.3758 13.269 12.3758 13.269C12.3758 13.269 12.4582 14.5497 12.2839 14.6835ZM12.6801 10.1023C12.1444 10.2807 11.7767 10.2202 11.466 10.0864C11.3297 10.3253 11.2505 10.3986 11.1459 10.4145C10.9937 10.4304 10.8574 10.1851 10.832 10.1055C10.8067 10.045 10.7337 9.94301 10.8225 9.70089C10.5182 9.42691 10.496 9.05735 10.5467 8.80885C10.6228 8.52213 11.1363 7.43257 12.6992 7.30514C12.6992 7.30514 13.4631 7.24779 13.5931 7.65877H13.6153C13.6153 7.65877 14.3571 7.66195 14.3412 8.32461C14.3317 8.99045 13.517 9.81877 12.6801 10.1023ZM11.2219 8.62726C11.0634 8.88213 11.0571 9.03505 11.13 9.14018C11.3107 8.86301 11.6404 8.42655 12.1254 8.09523C11.7513 8.12708 11.4375 8.28956 11.2219 8.62726ZM13.3807 8.20036C12.8894 8.27363 12.1286 8.93629 11.7672 9.47788C12.3219 9.57983 13.3015 9.5416 13.7358 8.65275C13.7326 8.65275 13.9418 8.1016 13.3807 8.20036ZM26.7202 13.3327C26.4254 13.8489 25.598 14.9257 24.4948 14.674C24.1303 15.5628 23.826 16.4581 23.6516 17.8025C23.6516 17.8025 23.6136 18.0637 23.398 17.9713C23.1856 17.8949 22.8306 17.5381 22.7608 17.0443C22.6848 16.3943 22.9732 15.2952 23.5597 14.0368C23.3885 13.7565 23.2712 13.355 23.3727 12.7848C23.3727 12.7848 23.5216 11.7271 24.5773 10.7713C24.5773 10.7713 24.7041 10.6598 24.777 10.6949C24.8594 10.7299 24.8214 11.074 24.7548 11.2397C24.6882 11.4053 24.2159 12.2273 24.2159 12.2273C24.2159 12.2273 23.9211 12.7816 24.0035 13.2181C24.5582 12.3611 25.8199 10.6312 26.6029 11.1759C26.866 11.3639 26.9865 11.7749 26.9865 12.2177C26.9833 12.6096 26.8914 13.0237 26.7202 13.3327ZM26.492 11.9756C26.492 11.9756 26.4476 11.6347 26.1179 12.0106C25.8326 12.326 25.319 12.9218 24.9038 13.7278C25.3381 13.68 25.7565 13.4411 25.8833 13.32C26.0894 13.1352 26.568 12.6382 26.492 11.9756ZM11.1015 12.4089C11.0412 13.1798 10.7464 14.4765 8.65738 15.1168C7.27842 15.5342 5.97554 15.3335 5.26545 15.1519C5.2496 15.4354 5.2179 15.5565 5.17352 15.6043C5.11329 15.6648 4.66314 15.926 4.41588 15.5565C4.30493 15.3812 4.24787 15.0627 4.21617 14.7791C2.61847 14.04 1.88303 12.9759 1.8545 12.9281C1.81963 12.8931 1.45507 12.5108 1.81963 12.0425C2.16199 11.6188 3.28101 11.195 4.28908 11.023C4.32395 10.1565 4.42539 9.50337 4.54585 9.2039C4.69167 8.85664 4.87554 9.16885 5.03404 9.40461C5.16718 9.57983 5.24643 10.3349 5.25277 10.937C5.91213 10.9051 6.30205 10.9529 7.03749 11.0867C7.99484 11.262 8.63519 11.7526 8.57813 12.3101C8.53692 12.8581 8.03605 13.0843 7.84585 13.1002C7.64614 13.1161 7.33548 12.9727 7.33548 12.9727C7.12309 12.8708 7.31963 12.7816 7.5764 12.6701C7.85536 12.5331 7.79196 12.3929 7.79196 12.3929C7.68735 12.0871 6.4447 11.8736 5.20839 11.8736C5.20205 12.5586 5.23692 13.6959 5.25277 14.3586C6.11819 14.5243 6.76487 14.4924 6.76487 14.4924C6.76487 14.4924 9.92222 14.4032 10.0173 12.377C10.1156 10.3476 6.86948 8.40107 4.46977 7.78301C2.07323 7.15222 0.716457 7.59186 0.599166 7.65239C0.472365 7.71611 0.589656 7.73523 0.589656 7.73523C0.589656 7.73523 0.719627 7.75434 0.944699 7.8308C1.18245 7.90726 0.99859 8.03151 0.99859 8.03151C0.589656 8.16213 0.130002 8.0793 0.0412413 7.89133C-0.0475195 7.70337 0.101472 7.53452 0.272653 7.29239C0.443835 7.03753 0.630867 7.04708 0.630867 7.04708C3.59484 6.01487 7.20551 7.88177 7.20551 7.88177C10.5879 9.60531 11.1649 11.6251 11.1015 12.4089ZM2.15565 12.3037C1.81963 12.4694 2.05104 12.7083 2.05104 12.7083C2.68188 13.3901 3.45853 13.817 4.19715 14.0814C4.28274 12.9058 4.27006 12.4917 4.27957 11.8991C3.12568 11.9788 2.45997 12.1635 2.15565 12.3037Z" fill="#01147C"/>
<path d="M32.9969 12.0616V12.4821C32.9969 12.5745 32.924 12.6478 32.832 12.6478H30.8381C30.8381 12.7529 30.8413 12.8453 30.8413 12.9313C30.8413 13.5525 30.8159 14.0591 30.7557 14.6294C30.7462 14.7154 30.6764 14.7791 30.594 14.7791H30.1629C30.1185 14.7791 30.0773 14.76 30.0488 14.7281C30.0202 14.6963 30.0044 14.6517 30.0107 14.6071C30.071 14.04 30.0995 13.5398 30.0995 12.9313C30.0995 12.8421 30.0995 12.7497 30.0963 12.6478H28.1246C28.0326 12.6478 27.9597 12.5745 27.9597 12.4821V12.0616C27.9597 11.9692 28.0326 11.8959 28.1246 11.8959H30.0678C30.0266 11.211 29.9442 10.5515 29.811 9.88246C29.8047 9.84105 29.8142 9.79963 29.8395 9.76777C29.8649 9.73591 29.9029 9.7168 29.9442 9.7168H30.4101C30.4831 9.7168 30.5433 9.76777 30.5591 9.84104C30.6891 10.5324 30.7715 11.2046 30.8127 11.8959H32.832C32.9208 11.8959 32.9969 11.9724 32.9969 12.0616Z" fill="#01147C"/>
<path d="M30.2833 8.72598C29.2531 6.1805 27.5127 4.01094 25.2493 2.44988C22.932 0.853769 20.2153 0.00952148 17.394 0.00952148C12.7277 0.00952148 8.39746 2.33837 5.81389 6.24103C5.78536 6.28244 5.77902 6.3366 5.79487 6.38439C5.81072 6.43536 5.84876 6.47041 5.89631 6.48634L6.25769 6.61058C6.27988 6.61695 6.30207 6.62014 6.32109 6.62014C6.38766 6.62014 6.45106 6.5851 6.4891 6.53094C7.6747 4.77872 9.27873 3.3228 11.13 2.31607C13.0416 1.27749 15.2067 0.726336 17.3908 0.726336C20.0315 0.726336 22.577 1.51005 24.758 2.98828C26.8851 4.43147 28.5367 6.44811 29.5352 8.81519C29.5637 8.88527 29.6335 8.93306 29.7096 8.93306H30.1407C30.1914 8.93306 30.239 8.90757 30.2643 8.86616C30.296 8.82474 30.3024 8.77377 30.2833 8.72598ZM6.32109 6.51182H6.32743C6.32743 6.51182 6.32426 6.51182 6.32109 6.51182ZM29.6208 8.87572C29.6303 8.88209 29.6398 8.88846 29.6493 8.89165C29.6398 8.88527 29.6303 8.88209 29.6208 8.87572Z" fill="url(#paint0_radial_1_58)"/>
</g>
<defs>
<radialGradient id="paint0_radial_1_58" cx="0" cy="0" r="1" gradientUnits="userSpaceOnUse" gradientTransform="translate(29.8783 8.917) scale(24.0962 24.2163)">
<stop offset="0.007" stop-color="#021192"/>
<stop offset="0.03" stop-color="#021096"/>
<stop offset="0.057" stop-color="#010CB4"/>
<stop offset="0.084" stop-color="#0008CE"/>
<stop offset="0.111" stop-color="#0006D7"/>
<stop offset="0.138" stop-color="#0004E1"/>
<stop offset="0.165" stop-color="#0001FA"/>
<stop offset="0.191" stop-color="#0000FE"/>
<stop offset="0.216" stop-color="#0F1EFF"/>
<stop offset="1" stop-color="#00FFFF" stop-opacity="0"/>
</radialGradient>
<clipPath id="clip0_1_58">
<rect width="33" height="18" fill="white"/>
</clipPath>
</defs>
</svg>
