<svg width="20" height="20" viewBox="0 0 20 20" fill="none" xmlns="http://www.w3.org/2000/svg">
<path d="M4.24375 1.48333C3.965 1.325 3.74292 1.25 3.42042 1.25C2.86833 1.25 2.5 1.61458 2.5 2.2525V17.7475C2.5 18.3854 2.86833 18.75 3.42042 18.75C3.7425 18.75 3.965 18.675 4.24375 18.5167L17.6658 10.9487C18.0362 10.7387 18.3333 10.4558 18.3333 10C18.3333 9.54417 18.0362 9.26042 17.6654 9.05042L4.24375 1.48333Z" fill="#880E4F"/>
<path d="M16.6667 3.33337H5V8.75004H16.6667V3.33337Z" fill="#D81B60"/>
<path d="M16.6667 11.5121V8.75H5V14.1667H11.9588L16.6667 11.5121Z" fill="#FF1744"/>
<path d="M15.4166 4.58337H14.1666V5.41671H15.4166V4.58337Z" fill="white"/>
<path d="M7.5 4.58337H6.25V5.41671H7.5V4.58337Z" fill="white"/>
<path d="M7.5 7.08337H6.25V7.91671H7.5V7.08337Z" fill="white"/>
<path d="M7.5 9.58337H6.25V10.4167H7.5V9.58337Z" fill="white"/>
<path d="M7.5 12.0834H6.25V12.9167H7.5V12.0834Z" fill="white"/>
<path d="M15.4166 7.08337H14.1666V7.91671H15.4166V7.08337Z" fill="white"/>
<path d="M15.4166 9.58337H14.1666V10.4167H15.4166V9.58337Z" fill="white"/>
</svg>
