<svg width="48" height="11" viewBox="0 0 48 11" fill="none" xmlns="http://www.w3.org/2000/svg">
<g clip-path="url(#clip0_1_39)">
<path d="M25.7185 0H22.1772V11H25.7185V0Z" fill="#FF143C"/>
<path d="M33.45 4.8832L29.9133 0.307237C29.7645 0.113274 29.5344 0 29.2919 0H27.0073V11H30.5486V6.1649L34.0453 10.6928C34.1941 10.8867 34.4243 11 34.6667 11H36.9881V0H33.4469V4.8832H33.45Z" fill="#FF143C"/>
<path d="M44.0507 7.78643H41.7814V3.21357H46.2647C46.5931 3.21357 46.8877 3.00719 47.0043 2.6953L48 0H38.2417V11H48V4.72648H44.0507V7.78643Z" fill="#FF143C"/>
<path d="M17.6233 0.536888L15.8051 5.83594L13.9885 0.536888C13.878 0.215686 13.5788 0 13.2428 0H9.83044L14.0376 11H17.5757L21.7829 0H18.3705C18.033 0 17.7338 0.215686 17.6233 0.536888Z" fill="#FF143C"/>
<path d="M8.44342 0H0V3.47581H3.34484V10.9984H6.88608V3.47581H10.3138L9.17837 0.508958C9.06176 0.203273 8.7687 0 8.44342 0Z" fill="#FF143C"/>
</g>
<defs>
<clipPath id="clip0_1_39">
<rect width="48" height="11" fill="white"/>
</clipPath>
</defs>
</svg>
