<svg width="48" height="17" viewBox="0 0 48 17" fill="none" xmlns="http://www.w3.org/2000/svg">
<g clip-path="url(#clip0_1_17)">
<path d="M0 3.01143H2.9904L4.06464 11.049L4.41024 11.0257L5.664 3.01143H8.064L9.26688 10.6993L9.6144 10.676L10.752 0H13.728L11.2387 13.9934L8.136 14.2023L7.01472 7.04286H6.71328L5.56512 14.3752L2.64 14.5714L0 3.01143Z" fill="#FF0558"/>
<path d="M14.7034 3.01147L12.7748 13.9886H15.098L15.3601 12.2148H17.5585L17.8148 13.9886H20.1601L18.2093 3.01147H14.7034ZM15.6529 10.2185L16.3249 5.65279H16.6129L17.2733 10.2185H15.6529Z" fill="#FF0558"/>
<path d="M46.0493 3.01147H42.5434L40.6147 13.9886H42.9379L43.2 12.2148H45.3984L45.6547 13.9886H48L46.0493 3.01147ZM43.4928 10.2185L44.1648 5.65279H44.4528L45.1133 10.2185H43.4928Z" fill="#FF0558"/>
<path d="M29.28 2.90063C27.1421 2.90063 26.1178 4.07606 26.1178 5.89458V11.1053C26.1178 12.9238 27.1421 14.0993 29.28 14.0993C31.418 14.0993 32.4423 12.9238 32.4423 11.1053V9.22075H30.0653V11.3278C30.0653 11.9038 29.8474 12.1049 29.28 12.1049C28.7127 12.1049 28.4948 11.9048 28.4948 11.3278V5.67212C28.4948 5.09606 28.7127 4.89498 29.28 4.89498C29.8474 4.89498 30.0653 5.09509 30.0653 5.67212V6.91458H32.4423V5.89458C32.4423 4.07995 31.418 2.90063 29.28 2.90063Z" fill="#FF0558"/>
<path d="M19.5168 5.2953H21.4752V13.9886H23.8368V5.2953H25.5648V3.01147H19.5168V5.2953Z" fill="#FF0558"/>
<path d="M37.5581 7.3557H35.8666V3.01147H33.4896V13.9886H35.8666V9.58999H37.5581V13.9886H39.9351V3.01147H37.5581V7.3557Z" fill="#FF0558"/>
</g>
<defs>
<clipPath id="clip0_1_17">
<rect width="48" height="17" fill="white"/>
</clipPath>
</defs>
</svg>
