<svg width="48" height="10" viewBox="0 0 48 10" fill="none" xmlns="http://www.w3.org/2000/svg">
<g clip-path="url(#clip0_1_27)">
<path d="M24.7334 1.81934C22.9045 1.81934 21.4224 3.36915 21.4224 5.28155C21.4224 7.19395 22.9045 8.74377 24.7334 8.74377C25.608 8.74377 26.4043 8.3876 26.9966 7.80843V8.74377H28.0445V5.28155C28.0445 3.36915 26.5624 1.81934 24.7334 1.81934ZM24.7334 7.64639C23.4845 7.64639 22.4703 6.5875 22.4703 5.27995C22.4703 3.974 23.483 2.91351 24.7334 2.91351C25.9824 2.91351 26.9966 3.97239 26.9966 5.27995C26.9966 6.5875 25.9824 7.64639 24.7334 7.64639Z" fill="black"/>
<path d="M31.5872 7.44424C31.5734 7.49076 31.509 7.49076 31.4952 7.44424L29.7552 1.81934H28.7073L30.6359 8.0555C30.7633 8.46621 31.1284 8.74537 31.5412 8.74537C31.9539 8.74537 32.3191 8.46782 32.4464 8.0555L34.3751 1.81934H33.3271L31.5872 7.44424Z" fill="black"/>
<path d="M37.9225 7.44424C37.9087 7.49076 37.8443 7.49076 37.8305 7.44424L36.0906 1.81934H35.0426L36.9713 8.0555C37.0986 8.46621 37.4638 8.74537 37.8765 8.74537C38.2892 8.74537 38.6544 8.46782 38.7818 8.0555L40.7104 1.81934H39.6625L37.9225 7.44424Z" fill="black"/>
<path d="M18.1097 7.44425C18.0959 7.49078 18.0314 7.49078 18.0176 7.44425L16.2777 1.81935H16.2731H15.2298H15.2251L13.4852 7.44425C13.4714 7.49078 13.407 7.49078 13.3932 7.44425L11.6548 1.81935H10.6068L12.5339 8.05391C12.6613 8.46463 13.0265 8.74379 13.4392 8.74379C13.8519 8.74379 14.2171 8.46623 14.3444 8.05391L15.7054 3.65475C15.7192 3.60822 15.7836 3.60822 15.7975 3.65475L17.1569 8.05391C17.2842 8.46463 17.6494 8.74379 18.0621 8.74379C18.4749 8.74379 18.84 8.46623 18.9674 8.05391L20.896 1.81775H19.8481L18.1097 7.44425Z" fill="black"/>
<path d="M48 5.28155C48 3.36915 46.5178 1.81934 44.6889 1.81934C42.86 1.81934 41.3778 3.36915 41.3778 5.28155C41.3778 7.19395 42.86 8.74377 44.6889 8.74377C46.0207 8.74377 47.1684 7.92073 47.6931 6.73511H46.4703C46.0575 7.29022 45.4131 7.64639 44.6889 7.64639C43.6195 7.64639 42.7265 6.86987 42.4902 5.82864H47.9586C47.9862 5.65056 48 5.46766 48 5.28155ZM42.4902 4.73286C42.7265 3.69163 43.621 2.91512 44.6889 2.91512C45.7583 2.91512 46.6513 3.69163 46.8876 4.73286H42.4902Z" fill="black"/>
<path d="M7.00729 4.0029L1.40238 0.157244C0.799386 -0.256682 0 0.195749 0 0.948195V5.01365V7.78118V9.05184C0 9.80428 0.799386 10.2567 1.40238 9.84279L3.18067 8.62187L6.19716 6.55224L7.00882 5.99552C7.69467 5.52705 7.69467 4.47298 7.00729 4.0029Z" fill="#022CA4"/>
<path d="M5.27498 6.68538C4.19481 6.68538 3.67007 6.25542 3.1131 5.79978C2.56842 5.35376 2.00532 4.89331 0.894462 4.89331C0.547704 4.89331 0.254646 4.93823 -0.00158691 5.01364V7.78117V9.05182C-0.00158691 9.80427 0.797799 10.2567 1.40079 9.84277L3.17908 8.62185L6.19557 6.55222C5.93627 6.63565 5.63708 6.68538 5.27498 6.68538Z" fill="#0652DB"/>
<path d="M0.896049 7.66248C0.54929 7.66248 0.256233 7.7074 0 7.7828V9.05346C0 9.80591 0.799386 10.2583 1.40238 9.84441L3.18067 8.62349C3.15765 8.60584 3.13617 8.58659 3.11316 8.56894C2.56847 8.12293 2.00537 7.66248 0.896049 7.66248Z" fill="#18B0DF"/>
</g>
<defs>
<clipPath id="clip0_1_27">
<rect width="48" height="10" fill="white"/>
</clipPath>
</defs>
</svg>
